<svg xmlns="http://www.w3.org/2000/svg" width="17.028" height="17.068" viewBox="0 0 17.028 17.068">
  <g id="Group_2951" data-name="Group 2951" transform="translate(1881.825 533.322)">
    <path id="Path_3768" data-name="Path 3768" d="M-1864.83-336.851a7.872,7.872,0,0,0-.894-3.115l-.046-.083-.013-.023-.043-.076c-.042-.074-.086-.147-.131-.22h-14.708c-.034.054-.066.108-.1.163l-.018.031-.014.024q-.042.073-.082.146h0a7.859,7.859,0,0,0-.915,3.152,8.231,8.231,0,0,0,.714,4.234v.006a6.43,6.43,0,0,0,.39.726l.024.041h14.708l.029-.049q.145-.233.268-.475s0-.008,0-.012A8.194,8.194,0,0,0-1864.83-336.851Zm-6.281,3.346a3.423,3.423,0,0,1-2.2.805,3.423,3.423,0,0,1-2.2-.805,3.42,3.42,0,0,1-1.2-2.626q0-.125.01-.248c0-.012,0-.023,0-.035s0-.017,0-.025a3.414,3.414,0,0,1,.743-1.811l.009-.011.033-.04a3.421,3.421,0,0,1,2.6-1.211,3.421,3.421,0,0,1,2.6,1.211l.033.04.009.011a3.414,3.414,0,0,1,.742,1.811c0,.008,0,.017,0,.025s0,.023,0,.035c.006.082.01.164.01.248A3.419,3.419,0,0,1-1871.111-333.505Z" transform="translate(0 -188.699)" fill="#032867"/>
    <g id="Group_2950" data-name="Group 2950" transform="translate(-1880.663 -533.322)">
      <path id="Path_3769" data-name="Path 3769" d="M-1829.144,46.057a8.433,8.433,0,0,0,1.8,2.2,8.746,8.746,0,0,0,3.394,1.778,8.925,8.925,0,0,0,3.11.271,9.538,9.538,0,0,0,1.659-.409,8.634,8.634,0,0,0,3.132-1.812,8.335,8.335,0,0,0,1.608-2.032Z" transform="translate(1829.144 -33.276)" fill="#cd1227"/>
      <path id="Path_3770" data-name="Path 3770" d="M-1814.587-529.335a8.5,8.5,0,0,0-9.754-3.592,8.217,8.217,0,0,0-4.811,3.861h14.706C-1814.493-529.156-1814.534-529.249-1814.587-529.335Z" transform="translate(1829.152 533.322)" fill="#cd1227"/>
    </g>
    <path id="Path_3771" data-name="Path 3771" d="M-1643.382-298.118a3.4,3.4,0,0,1-3.448,3.38,3.405,3.405,0,0,1-3.363-3.431,3.405,3.405,0,0,1,3.448-3.38A3.4,3.4,0,0,1-1643.382-298.118Z" transform="translate(-226.523 -226.661)" fill="#fdfcfd"/>
  </g>
</svg>
