<svg xmlns="http://www.w3.org/2000/svg" width="17.118" height="17.068" viewBox="0 0 17.118 17.068">
  <g id="Group_2952" data-name="Group 2952" transform="translate(2498.554 429.711)">
    <path id="Path_3772" data-name="Path 3772" d="M-2489.358-428.713a8.488,8.488,0,0,0-8.556,8.518,8.487,8.487,0,0,0,8.548,8.527,8.459,8.459,0,0,0,8.555-8.5A8.459,8.459,0,0,0-2489.358-428.713Z" transform="translate(-0.626 -0.976)" fill="#fefdfd"/>
    <path id="Path_3773" data-name="Path 3773" d="M-2489.891-428.463c-.011.444-.009.887,0,1.331v1.332q-.013.667,0,1.333v1.308c-.009.445-.01.89,0,1.335s0,.88,0,1.32a.234.234,0,0,1-.122.011q-4.193,0-8.387,0c-.1,0-.137-.024-.141-.126a9.3,9.3,0,0,1,.04-1.512,8.974,8.974,0,0,1,.292-1.457c.006-.021.017-.041.024-.061.117.045.159.113.094.232a1.326,1.326,0,0,0-.068.211c.1-.071.172-.121.24-.176a.081.081,0,0,1,.118,0c.068.053.139.1.22.16a.822.822,0,0,0-.071-.263.087.087,0,0,1,.04-.12c.071-.047.138-.1.235-.17-.119,0-.2,0-.288,0a.087.087,0,0,1-.1-.074c-.022-.087-.056-.171-.091-.275a1.433,1.433,0,0,0-.072.216c-.021.13-.094.154-.212.123a5.146,5.146,0,0,1,.255-.681c.039-.1.09-.19.129-.288.031-.077.064-.105.131-.035a.494.494,0,0,0,.071.044.367.367,0,0,1,.171-.552c-.052-.012-.093-.014-.056-.073.117-.184.227-.371.338-.554a.154.154,0,0,1,.095.248,1.339,1.339,0,0,0-.061.2c.093-.067.167-.115.235-.171a.084.084,0,0,1,.125,0c.063.052.133.1.212.153a.522.522,0,0,0-.058-.23.114.114,0,0,1,.052-.166.663.663,0,0,0,.184-.16c-.088,0-.176,0-.264,0-.052,0-.073-.017-.1-.066a.388.388,0,0,1,.083-.485,8.827,8.827,0,0,1,3.576-2.559,8.322,8.322,0,0,1,2.181-.515,6.5,6.5,0,0,1,.947-.038Q-2489.893-429.085-2489.891-428.463Zm-6.6,4.493.008.012s0-.006,0-.007l-.009,0a.532.532,0,0,0-.068-.223.085.085,0,0,1,.036-.12.981.981,0,0,0,.221-.176c-.1,0-.195,0-.285,0a.074.074,0,0,1-.087-.064c-.025-.09-.059-.177-.1-.287-.033.1-.063.18-.084.262a.1.1,0,0,1-.127.089c-.08-.007-.162,0-.276,0,.1.072.166.128.24.176a.082.082,0,0,1,.036.121.77.77,0,0,0-.075.243c.086-.062.16-.11.229-.165a.082.082,0,0,1,.116,0A.7.7,0,0,0-2496.492-423.97Zm1.625,0a.62.62,0,0,0,.213-.138.092.092,0,0,1,.135,0c.065.053.136.1.2.148a.736.736,0,0,0-.062-.233.082.082,0,0,1,.035-.121c.074-.047.143-.1.24-.176a2.33,2.33,0,0,0-.243,0c-.1.012-.153-.016-.17-.121a1.3,1.3,0,0,0-.068-.207l-.033-.035c.013.328-.157.406-.417.362,0,0-.01.007-.021.016.073.054.143.11.218.158a.085.085,0,0,1,.036.121.5.5,0,0,0-.067.223l-.011.009s.007,0,.008,0A.034.034,0,0,0-2494.867-423.97Zm3.814.756.008-.006-.009.005c.027-.1-.039-.177-.062-.265-.014-.055-.013-.087.039-.12.073-.046.141-.1.237-.172-.123,0-.209,0-.295,0a.083.083,0,0,1-.1-.069,1.209,1.209,0,0,0-.1-.269c-.031.094-.063.178-.086.264a.088.088,0,0,1-.1.074.911.911,0,0,0-.271.013c.081.059.149.112.221.16a.08.08,0,0,1,.037.112c-.032.082-.055.169-.088.271.033-.019.049-.026.063-.036C-2491.3-423.426-2491.3-423.426-2491.052-423.214Zm-4.892,0c.071-.055.145-.107.213-.164a.08.08,0,0,1,.118,0c.069.055.143.105.24.175-.037-.114-.06-.2-.092-.283a.081.081,0,0,1,.036-.113c.073-.049.142-.1.229-.166-.134-.02-.274.038-.348-.028s-.083-.2-.126-.326c-.035.1-.068.188-.093.277a.081.081,0,0,1-.1.069c-.087,0-.174,0-.262,0a.958.958,0,0,0,.2.172c.052.032.053.065.039.12-.022.088-.089.166-.061.265l-.009,0Zm4.9-1.546.007.008h.005l-.014,0a.654.654,0,0,0-.067-.256.087.087,0,0,1,.04-.119c.073-.047.14-.1.234-.172-.119,0-.2,0-.29,0a.085.085,0,0,1-.1-.076c-.023-.086-.056-.169-.093-.276-.034.1-.064.182-.084.263s-.054.093-.126.089a.728.728,0,0,0-.255.012,1.713,1.713,0,0,0,.193.139c.082.044.083.1.054.174a.625.625,0,0,0-.061.229l.139-.1c.141-.1.141-.1.28,0C-2491.141-424.818-2491.093-424.79-2491.046-424.76Zm-3.816,2.356c.071-.05.144-.1.21-.151a.086.086,0,0,1,.127,0c.067.055.14.1.237.171-.036-.112-.054-.193-.086-.267s-.008-.1.047-.138c.07-.045.135-.1.228-.164-.107,0-.178-.006-.249,0-.093.01-.144-.018-.163-.116a1.866,1.866,0,0,0-.078-.234c-.037.109-.07.193-.093.279a.079.079,0,0,1-.094.07c-.088,0-.177,0-.3,0,.1.073.167.128.24.177a.081.081,0,0,1,.038.11c-.025.087-.085.167-.067.265l-.016,0s0,0,0,0Zm-1.634,0h.008l-.01,0a.513.513,0,0,0-.063-.245c-.021-.063-.016-.1.043-.138s.135-.1.228-.167h-.186c-.183,0-.182,0-.238-.167a.472.472,0,0,0-.067-.167c-.03.091-.063.175-.086.262a.085.085,0,0,1-.1.073c-.087,0-.175,0-.292,0,.091.067.151.118.218.158a.108.108,0,0,1,.054.155.665.665,0,0,0-.066.24c.1-.068.19-.179.278-.177S-2496.59-422.468-2496.5-422.406Zm.545-2.354a.845.845,0,0,0,.2-.138.1.1,0,0,1,.146,0c.063.054.135.1.229.165-.032-.1-.048-.168-.077-.232a.128.128,0,0,1,.061-.192,1.75,1.75,0,0,0,.177-.127l-.009-.028c-.111,0-.252.041-.326-.012s-.083-.2-.126-.324c-.034.1-.068.181-.091.267a.091.091,0,0,1-.111.079c-.084-.005-.168,0-.285,0,.086.063.14.109.2.144a.129.129,0,0,1,.064.189.4.4,0,0,0-.054.213l-.014,0h.006A.039.039,0,0,0-2495.951-424.76Zm2.734-1.559.017.013,0-.025c-.024-.079-.046-.158-.074-.236a.088.088,0,0,1,.041-.121c.074-.047.142-.1.238-.173-.122,0-.211,0-.3,0a.081.081,0,0,1-.1-.068c-.024-.084-.054-.167-.092-.281a2.417,2.417,0,0,0-.083.25c-.018.083-.062.106-.141.1s-.155,0-.232,0l-.032.02c.29.109.348.289.184.542a1.841,1.841,0,0,0,.246-.167.079.079,0,0,1,.116,0A1.091,1.091,0,0,0-2493.216-426.319Zm2.172,0a.034.034,0,0,0,0,.01s.005,0,.008,0l-.011-.009a.753.753,0,0,0-.067-.247.089.089,0,0,1,.038-.121c.074-.048.143-.1.24-.175-.123,0-.215,0-.307,0a.074.074,0,0,1-.087-.064c-.025-.09-.058-.177-.1-.286-.033.1-.063.182-.085.264-.017.063-.045.093-.116.087s-.169,0-.285,0c.095.07.161.124.232.17a.089.089,0,0,1,.043.129c-.033.078-.052.162-.087.273.1-.069.171-.119.24-.174a.082.082,0,0,1,.116,0A.7.7,0,0,0-2491.044-426.321Zm-4.908,0a.6.6,0,0,0,.212-.139.09.09,0,0,1,.135,0c.066.054.139.1.23.166a1.133,1.133,0,0,0-.062-.2c-.065-.119-.027-.192.084-.25a1.547,1.547,0,0,0,.169-.124c-.142,0-.268.035-.351-.009s-.081-.2-.124-.3a.149.149,0,0,0-.02-.022c-.031.09-.064.173-.086.259a.085.085,0,0,1-.1.074c-.088,0-.176,0-.3,0,.094.067.157.119.226.161a.109.109,0,0,1,.049.157.532.532,0,0,0-.061.225c-.013,0-.02,0-.009.013Zm1.085.814a.461.461,0,0,0,.2-.125.1.1,0,0,1,.154,0c.063.053.133.1.223.162-.036-.116-.06-.2-.092-.286a.074.074,0,0,1,.033-.1c.075-.052.147-.108.221-.162a1.027,1.027,0,0,0-.275-.02.081.081,0,0,1-.1-.068c-.024-.086-.055-.171-.091-.278-.036.105-.069.185-.089.268-.016.065-.049.082-.111.079-.086,0-.173,0-.292,0,.1.075.173.13.248.18a.082.082,0,0,1,.036.112.828.828,0,0,0-.07.247l-.013.013s.008,0,.01,0S-2494.858-425.5-2494.867-425.507Zm4.008,3.308-.009-.021c-.081,0-.162,0-.243,0a.1.1,0,0,1-.128-.089.905.905,0,0,0-.09-.247c-.028.086-.058.164-.078.243a.1.1,0,0,1-.124.094.743.743,0,0,0-.262.013c.085.062.156.117.23.167a.076.076,0,0,1,.033.1,1.228,1.228,0,0,0-.079.277c.072-.052.137-.091.193-.141a.115.115,0,0,1,.181,0,2.393,2.393,0,0,0,.212.154c-.035-.111-.058-.2-.091-.28a.084.084,0,0,1,.04-.119C-2491-422.093-2490.931-422.148-2490.86-422.2Zm-2.928.553c.1-.069.168-.118.235-.172a.087.087,0,0,1,.128,0c.07.056.145.106.239.173-.035-.108-.061-.193-.091-.277a.086.086,0,0,1,.038-.122c.075-.046.143-.1.214-.154a1.024,1.024,0,0,0-.275-.02.083.083,0,0,1-.1-.07c-.024-.084-.054-.166-.092-.279-.037.112-.067.192-.089.274a.088.088,0,0,1-.1.075c-.087,0-.175,0-.263,0a.939.939,0,0,0,.2.172.091.091,0,0,1,.04.131C-2493.731-421.838-2493.753-421.755-2493.788-421.646Zm1.666-5.379c-.037-.113-.062-.2-.092-.276a.088.088,0,0,1,.039-.122c.073-.046.14-.1.236-.171-.114,0-.193,0-.271,0s-.11-.015-.128-.09-.051-.157-.088-.264c-.038.115-.067.2-.09.278a.091.091,0,0,1-.1.076,1.028,1.028,0,0,0-.274.011,1.305,1.305,0,0,0,.158.113.158.158,0,0,1,.076.245,1.783,1.783,0,0,0-.067.2c.1-.069.172-.119.242-.175a.083.083,0,0,1,.119,0C-2492.293-427.143-2492.218-427.093-2492.122-427.025Zm1.26-1.37-.008-.022c-.086,0-.171,0-.257,0-.065,0-.092-.022-.11-.082a.958.958,0,0,0-.094-.253c-.031.095-.062.18-.085.267a.081.081,0,0,1-.1.068c-.088,0-.177,0-.265,0a.946.946,0,0,0,.207.178.08.08,0,0,1,.037.112c-.032.083-.056.17-.092.281.1-.068.17-.116.238-.172a.084.084,0,0,1,.125,0c.069.056.143.1.238.174-.035-.106-.057-.185-.086-.261a.1.1,0,0,1,.046-.148C-2490.992-428.293-2490.929-428.346-2490.862-428.394Zm-5.3,6.174c.1.07.162.124.233.168a.094.094,0,0,1,.047.136c-.033.078-.054.162-.088.267.085-.061.153-.1.211-.152a.11.11,0,0,1,.172,0c.059.052.127.093.215.156-.036-.113-.057-.2-.089-.275a.086.086,0,0,1,.038-.122c.073-.048.142-.1.232-.169-.14-.016-.281.039-.354-.026s-.083-.2-.127-.325c-.032.094-.065.173-.084.256s-.057.094-.128.089S-2496.048-422.22-2496.165-422.22Zm-1.4.559c-.028-.089-.047-.161-.075-.23a.12.12,0,0,1,.054-.175.573.573,0,0,0,.193-.155c-.1,0-.186,0-.272,0a.086.086,0,0,1-.1-.075c-.022-.087-.056-.17-.091-.274-.032.1-.062.18-.083.262a.1.1,0,0,1-.118.087c-.084-.007-.169,0-.253,0a.6.6,0,0,0,.176.152c.085.046.092.1.058.183a.636.636,0,0,0-.063.224c.1-.068.182-.17.277-.181S-2497.689-421.722-2497.565-421.661Zm4.375-6.19c-.031-.1-.053-.178-.083-.258a.1.1,0,0,1,.043-.14c.072-.043.136-.1.231-.168-.12,0-.2,0-.289,0a.091.091,0,0,1-.111-.079c-.021-.081-.052-.16-.089-.268a2.694,2.694,0,0,0-.085.258c-.017.076-.057.093-.127.089s-.161,0-.277,0c.091.067.15.117.215.157a.111.111,0,0,1,.055.164,2.22,2.22,0,0,0-.077.244c.029-.017.042-.024.054-.032.08-.056.159-.155.239-.156s.16.1.24.151Zm.312,1.807-.006.023a2.1,2.1,0,0,0,.19.138c.075.043.082.092.05.166a2.487,2.487,0,0,0-.077.245c.094-.068.17-.117.24-.174a.079.079,0,0,1,.117,0c.071.057.146.107.242.175-.036-.109-.059-.192-.089-.272a.092.092,0,0,1,.041-.13c.073-.046.14-.1.233-.173-.113,0-.191-.005-.269,0a.108.108,0,0,1-.135-.094.727.727,0,0,0-.09-.236c-.032.1-.061.177-.085.259a.081.081,0,0,1-.095.07C-2492.7-426.048-2492.789-426.044-2492.878-426.044Zm-.016,3.1c.08.058.148.111.219.158a.089.089,0,0,1,.041.122c-.031.084-.056.169-.092.278.1-.07.173-.122.247-.179a.076.076,0,0,1,.109,0c.072.057.149.108.246.178-.034-.106-.052-.187-.085-.261a.1.1,0,0,1,.05-.148c.068-.043.131-.094.222-.161-.121,0-.21,0-.3,0a.082.082,0,0,1-.1-.069,1.067,1.067,0,0,0-.1-.262c-.041.115-.049.25-.121.311s-.209.011-.317.02Zm-.579-2.7a.908.908,0,0,0-.107.266.084.084,0,0,1-.1.069,1.047,1.047,0,0,0-.282.011c.079.057.143.109.213.152a.1.1,0,0,1,.042.141c-.031.079-.053.163-.085.266.085-.062.154-.106.216-.159a.106.106,0,0,1,.164,0,2.678,2.678,0,0,0,.219.159c-.032-.1-.052-.182-.084-.258a.1.1,0,0,1,.045-.15c.07-.044.135-.1.2-.145l0-.036C-2493.308-425.234-2493.457-425.341-2493.473-425.638Zm.288,2.439c-.039-.117-.063-.2-.093-.28a.088.088,0,0,1,.041-.122c.07-.046.136-.1.232-.17-.116,0-.2-.005-.279,0s-.1-.022-.116-.088-.053-.159-.089-.265c-.037.115-.066.2-.092.284a.085.085,0,0,1-.1.069.848.848,0,0,0-.274.015c.076.055.137.105.2.147a.1.1,0,0,1,.046.139c-.031.078-.052.161-.085.265.094-.068.169-.117.239-.173a.082.082,0,0,1,.119,0C-2493.357-423.322-2493.283-423.271-2493.185-423.2Zm.275-1.288c.083.062.138.111.2.148.082.048.107.1.058.191a1.46,1.46,0,0,0-.076.212c.1-.069.175-.12.246-.177a.079.079,0,0,1,.117,0c.071.057.147.107.247.178-.038-.1-.063-.178-.093-.25a.091.091,0,0,1,.038-.132c.074-.046.141-.1.237-.172-.124,0-.213,0-.3,0a.08.08,0,0,1-.094-.07c-.024-.084-.054-.166-.081-.249a.523.523,0,0,0-.082.189c-.021.1-.067.148-.176.13A1.7,1.7,0,0,0-2492.909-424.488Zm-1.223-3.084-.006-.021c-.085,0-.169,0-.254,0a.087.087,0,0,1-.1-.074c-.023-.086-.054-.169-.091-.28-.038.113-.071.2-.094.283a.081.081,0,0,1-.1.07c-.087,0-.175,0-.262,0a.964.964,0,0,0,.2.171.086.086,0,0,1,.037.12.758.758,0,0,0-.067.24.588.588,0,0,0,.2-.13.1.1,0,0,1,.146,0c.064.053.135.1.226.161-.036-.112-.056-.2-.089-.274a.085.085,0,0,1,.04-.121C-2494.267-427.47-2494.2-427.522-2494.132-427.571Z" fill="#273963"/>
    <path id="Path_3774" data-name="Path 3774" d="M-2487.976,36.173h16.515c.15,0,.15,0,.114.147a8.884,8.884,0,0,1-.368,1.087c-.021.055-.051.079-.108.07a.394.394,0,0,0-.056,0q-7.763,0-15.526,0a.172.172,0,0,1-.194-.13,9.322,9.322,0,0,1-.351-1.058C-2487.958,36.255-2487.966,36.219-2487.976,36.173Z" transform="translate(-10.339 -455.34)" fill="#cb222e"/>
    <path id="Path_3775" data-name="Path 3775" d="M-2437.452,152.76h14.36a.2.2,0,0,1-.055.109,8.826,8.826,0,0,1-.935,1.159.185.185,0,0,1-.147.062H-2436.3a.148.148,0,0,1-.123-.037A8.584,8.584,0,0,1-2437.452,152.76Z" transform="translate(-59.719 -569.288)" fill="#cb222e"/>
    <path id="Path_3776" data-name="Path 3776" d="M-2115.859-80.029v-1.32q4.153,0,8.306,0c.1,0,.127.031.133.129a9.08,9.08,0,0,1,0,1.118c0,.063-.021.09-.085.081a.407.407,0,0,0-.056,0h-8.171C-2115.776-80.025-2115.818-80.028-2115.859-80.029Z" transform="translate(-374.033 -340.475)" fill="#cb222e"/>
    <path id="Path_3777" data-name="Path 3777" d="M-2115.823-196.791V-198.1q3.841,0,7.682,0a.16.16,0,0,1,.177.121,7.484,7.484,0,0,1,.348,1.046c.036.143.035.144-.107.144Z" transform="translate(-374.068 -226.368)" fill="#cb222e"/>
    <path id="Path_3778" data-name="Path 3778" d="M-2115.84-314.474v-1.332q2.954,0,5.907,0a.254.254,0,0,1,.206.085,8.951,8.951,0,0,1,.985,1.248Z" transform="translate(-374.052 -111.326)" fill="#cb222e"/>
    <path id="Path_3779" data-name="Path 3779" d="M-2305.392,270.232a8.644,8.644,0,0,1-8.811.007C-2314.113,270.22-2305.641,270.212-2305.392,270.232Z" transform="translate(-180.179 -684.09)" fill="#cb222e"/>
    <path id="Path_3780" data-name="Path 3780" d="M-2116.019-428.267q0-.622-.005-1.243a8.159,8.159,0,0,1,2.412.367,8.593,8.593,0,0,1,1.851.82.11.11,0,0,1,.05.056Z" transform="translate(-373.872 -0.196)" fill="#cb222e"/>
    <path id="Path_3781" data-name="Path 3781" d="M-2429.813-280.065a.6.6,0,0,1-.063.247c-.02.064-.076.018-.123.022l.188-.268Z" transform="translate(-67.004 -146.259)" fill="#273963"/>
    <path id="Path_3782" data-name="Path 3782" d="M-2421.777-280.064h0Z" transform="translate(-75.037 -146.26)" fill="#273963"/>
    <path id="Path_3783" data-name="Path 3783" d="M-2198.933-113.193c-.071.052-.14.106-.214.154a.084.084,0,0,0-.04.119c.032.082.055.169.091.28a2.355,2.355,0,0,1-.212-.154.115.115,0,0,0-.181,0c-.055.049-.12.089-.193.141a1.214,1.214,0,0,1,.079-.277.077.077,0,0,0-.033-.1c-.074-.05-.145-.1-.23-.167a.746.746,0,0,1,.263-.013.1.1,0,0,0,.124-.094c.02-.08.049-.157.077-.243a.9.9,0,0,1,.09.247.105.105,0,0,0,.129.089c.081-.006.162,0,.243,0Z" transform="translate(-291.927 -309.006)" fill="#f7f8f9"/>
    <path id="Path_3784" data-name="Path 3784" d="M-2294.729-113.195c.034-.109.056-.192.088-.272a.091.091,0,0,0-.04-.131.929.929,0,0,1-.2-.172c.088,0,.176,0,.263,0a.087.087,0,0,0,.1-.075c.022-.082.052-.162.089-.274.037.113.068.195.092.279a.083.083,0,0,0,.1.07,1.027,1.027,0,0,1,.275.02c-.071.052-.139.108-.214.154a.087.087,0,0,0-.038.122c.03.084.056.169.091.277-.094-.067-.169-.117-.238-.173a.087.087,0,0,0-.128,0C-2294.562-113.313-2294.633-113.264-2294.729-113.195Z" transform="translate(-199.058 -308.451)" fill="#f7f8f9"/>
    <path id="Path_3785" data-name="Path 3785" d="M-2247.657-350.806c-.1-.069-.171-.119-.242-.174a.083.083,0,0,0-.119,0c-.07.056-.146.106-.242.175a1.732,1.732,0,0,1,.067-.2.158.158,0,0,0-.076-.245,1.3,1.3,0,0,1-.158-.113,1.029,1.029,0,0,1,.274-.011.09.09,0,0,0,.1-.076c.024-.082.053-.163.091-.278.036.107.069.184.087.264s.057.095.128.09.156,0,.271,0c-.1.07-.163.125-.236.171a.088.088,0,0,0-.039.122C-2247.719-351-2247.694-350.919-2247.657-350.806Z" transform="translate(-244.465 -76.218)" fill="#f7f8f9"/>
    <path id="Path_3786" data-name="Path 3786" d="M-2198.183-386.891c-.066.048-.13.1-.2.143a.1.1,0,0,0-.046.148c.029.076.052.155.086.261-.1-.069-.169-.118-.238-.174a.084.084,0,0,0-.125,0c-.068.056-.143.1-.238.172.036-.112.059-.2.092-.281a.08.08,0,0,0-.037-.112.952.952,0,0,1-.208-.178c.088,0,.177,0,.265,0a.081.081,0,0,0,.1-.068c.023-.087.054-.172.085-.267a.957.957,0,0,1,.094.253c.018.061.045.087.11.082.085-.005.171,0,.257,0Z" transform="translate(-292.679 -41.503)" fill="#f7f8f9"/>
    <path id="Path_3787" data-name="Path 3787" d="M-2393-113.6c.117,0,.2,0,.279,0a.1.1,0,0,0,.128-.089c.02-.082.053-.161.085-.256.044.123.054.26.127.325s.214.01.354.026c-.091.067-.159.121-.232.169a.086.086,0,0,0-.038.122c.032.079.053.163.089.275a2.616,2.616,0,0,1-.215-.156.111.111,0,0,0-.172,0c-.058.051-.126.092-.211.152.034-.106.055-.189.088-.267a.094.094,0,0,0-.047-.136C-2392.834-113.476-2392.9-113.53-2393-113.6Z" transform="translate(-103.169 -308.62)" fill="#f7f8f9"/>
    <path id="Path_3788" data-name="Path 3788" d="M-2487.226-113.2c-.124-.061-.2-.192-.3-.181s-.179.113-.277.181a.636.636,0,0,1,.063-.224c.034-.082.028-.138-.057-.183a.593.593,0,0,1-.176-.152c.084,0,.169-.005.253,0a.1.1,0,0,0,.118-.087c.022-.082.051-.162.084-.262.035.1.069.187.091.274a.086.086,0,0,0,.1.075c.086,0,.173,0,.272,0a.577.577,0,0,1-.193.155.12.12,0,0,0-.054.175C-2487.273-113.36-2487.255-113.287-2487.226-113.2Z" transform="translate(-10.339 -308.463)" fill="#f7f8f9"/>
    <path id="Path_3789" data-name="Path 3789" d="M-2295.521-386.856l-.062-.038c-.08-.054-.161-.152-.24-.151s-.159.1-.239.156c-.012.008-.025.015-.054.032a2.218,2.218,0,0,1,.077-.244.111.111,0,0,0-.055-.164c-.066-.039-.125-.09-.215-.157.116,0,.2,0,.277,0s.111-.013.127-.089a2.7,2.7,0,0,1,.085-.258c.037.108.068.186.089.268a.091.091,0,0,0,.111.079c.084-.005.169,0,.289,0-.095.07-.159.125-.231.168a.1.1,0,0,0-.043.14C-2295.574-387.034-2295.552-386.952-2295.521-386.856Z" transform="translate(-197.668 -40.995)" fill="#f7f8f9"/>
    <path id="Path_3790" data-name="Path 3790" d="M-2248.036-281.867c.089,0,.178,0,.267,0a.081.081,0,0,0,.095-.07c.024-.082.053-.163.085-.259a.722.722,0,0,1,.089.236.108.108,0,0,0,.135.094c.078-.007.156,0,.269,0-.094.07-.16.127-.233.173a.092.092,0,0,0-.041.13c.031.08.054.163.089.272-.1-.068-.171-.119-.242-.175a.079.079,0,0,0-.117,0c-.07.057-.146.106-.24.174a2.487,2.487,0,0,1,.077-.245c.032-.075.026-.123-.049-.166a2,2,0,0,1-.19-.138Z" transform="translate(-244.842 -144.177)" fill="#f7f8f9"/>
    <path id="Path_3791" data-name="Path 3791" d="M-2344.814-282.091a.828.828,0,0,1,.07-.247.081.081,0,0,0-.036-.112c-.074-.05-.145-.1-.248-.18.119,0,.206,0,.292,0,.062,0,.1-.013.111-.079.02-.083.053-.163.089-.268.036.108.066.192.091.278a.08.08,0,0,0,.1.068,1.025,1.025,0,0,1,.275.02c-.073.054-.146.11-.221.162a.074.074,0,0,0-.033.1c.032.083.055.17.092.286-.09-.065-.161-.109-.223-.162a.1.1,0,0,0-.154,0,.463.463,0,0,1-.2.125Z" transform="translate(-150.051 -143.415)" fill="#f7f8f9"/>
    <path id="Path_3792" data-name="Path 3792" d="M-2248.472-145.373l.026-.011c.108-.01.245.042.317-.02s.08-.2.121-.311a1.068,1.068,0,0,1,.1.262.082.082,0,0,0,.1.069c.089-.006.178,0,.3,0-.091.066-.154.117-.222.161a.1.1,0,0,0-.05.148c.033.075.051.155.085.261-.1-.07-.174-.121-.246-.178a.076.076,0,0,0-.109,0c-.073.057-.15.109-.247.179.036-.109.061-.194.092-.278a.089.089,0,0,0-.041-.122C-2248.324-145.261-2248.392-145.314-2248.472-145.373Z" transform="translate(-244.422 -277.568)" fill="#f7f8f9"/>
    <path id="Path_3793" data-name="Path 3793" d="M-2294.991-249.745c.016.3.165.4.454.315l0,.036c-.067.049-.132.1-.2.145a.1.1,0,0,0-.045.15c.032.075.051.156.084.258a2.647,2.647,0,0,1-.22-.159.106.106,0,0,0-.164,0c-.062.053-.131.1-.216.159.032-.1.054-.186.085-.266a.1.1,0,0,0-.042-.141c-.07-.044-.135-.1-.214-.152a1.047,1.047,0,0,1,.282-.011.085.085,0,0,0,.1-.069A.9.9,0,0,1-2294.991-249.745Z" transform="translate(-198.482 -175.893)" fill="#f7f8f9"/>
    <path id="Path_3794" data-name="Path 3794" d="M-2392.745-317.59a.525.525,0,0,1,.061-.225.11.11,0,0,0-.049-.157c-.07-.041-.133-.093-.226-.161.121,0,.209,0,.3,0a.085.085,0,0,0,.1-.074c.022-.086.056-.169.086-.259a.151.151,0,0,1,.02.022c.043.1.031.249.124.3s.209.009.351.009a1.524,1.524,0,0,1-.169.124c-.112.058-.15.131-.084.25a1.159,1.159,0,0,1,.062.2c-.091-.065-.164-.112-.23-.166a.09.09,0,0,0-.135,0,.6.6,0,0,1-.212.139Z" transform="translate(-103.205 -108.729)" fill="#f7f8f9"/>
    <path id="Path_3795" data-name="Path 3795" d="M-2199.852-318.329a.7.7,0,0,1-.222-.145.082.082,0,0,0-.116,0c-.069.055-.144.1-.24.174.034-.111.054-.194.087-.273a.089.089,0,0,0-.043-.129c-.071-.046-.137-.1-.232-.17.117,0,.2-.005.286,0s.1-.024.116-.087c.022-.082.052-.161.085-.264.037.109.07.2.1.286a.074.074,0,0,0,.087.064c.092,0,.184,0,.307,0-.1.071-.166.127-.24.175a.089.089,0,0,0-.038.121.758.758,0,0,1,.067.246Z" transform="translate(-291.192 -107.992)" fill="#f7f8f9"/>
    <path id="Path_3796" data-name="Path 3796" d="M-2295.448-318.27a1.084,1.084,0,0,1-.212-.145.079.079,0,0,0-.116,0,1.825,1.825,0,0,1-.246.167c.164-.253.106-.433-.184-.542l.032-.02c.077,0,.155-.005.232,0s.123-.016.141-.1a2.417,2.417,0,0,1,.083-.25c.038.114.068.2.092.281a.081.081,0,0,0,.1.068c.089,0,.178,0,.3,0-.1.07-.164.126-.237.173a.088.088,0,0,0-.042.121c.028.077.05.157.074.236Z" transform="translate(-197.768 -108.049)" fill="#f7f8f9"/>
    <path id="Path_3797" data-name="Path 3797" d="M-2392.555-249.349a.393.393,0,0,1,.054-.214.129.129,0,0,0-.064-.189c-.061-.035-.114-.081-.2-.144.117,0,.2,0,.285,0a.091.091,0,0,0,.111-.079c.022-.086.056-.168.09-.267.044.124.052.271.126.325s.214.012.326.012l.009.028a1.756,1.756,0,0,1-.177.127.128.128,0,0,0-.061.192c.029.064.045.133.077.232-.094-.067-.166-.111-.229-.165a.1.1,0,0,0-.145,0,.849.849,0,0,1-.2.138Z" transform="translate(-103.394 -175.409)" fill="#f7f8f9"/>
    <path id="Path_3798" data-name="Path 3798" d="M-2440.623-145.008c-.094-.062-.186-.17-.281-.172s-.178.109-.278.177a.674.674,0,0,1,.066-.24.108.108,0,0,0-.053-.155c-.067-.04-.127-.091-.218-.158.117,0,.2,0,.291,0a.086.086,0,0,0,.1-.073c.023-.087.055-.171.085-.262a.468.468,0,0,1,.067.167c.056.167.055.167.238.167h.186c-.093.069-.157.123-.229.167s-.064.075-.043.138a.516.516,0,0,1,.063.245Z" transform="translate(-55.873 -277.398)" fill="#f7f8f9"/>
    <path id="Path_3799" data-name="Path 3799" d="M-2344.5-145.628c-.018-.1.041-.178.066-.266a.081.081,0,0,0-.037-.11c-.073-.049-.143-.1-.241-.177.121,0,.209,0,.3,0a.08.08,0,0,0,.095-.07c.023-.086.056-.17.093-.279a1.908,1.908,0,0,1,.078.234c.018.1.07.126.163.116.07-.008.141,0,.248,0-.093.068-.158.119-.228.164-.054.035-.076.07-.047.138s.051.155.086.267c-.1-.069-.17-.117-.237-.171a.086.086,0,0,0-.127,0c-.067.054-.14.1-.211.151Z" transform="translate(-150.362 -276.774)" fill="#f7f8f9"/>
    <path id="Path_3800" data-name="Path 3800" d="M-2198.979-249.6c-.047-.03-.095-.059-.14-.091-.139-.1-.138-.1-.28,0l-.139.1a.625.625,0,0,1,.062-.229c.029-.077.028-.131-.054-.174a1.758,1.758,0,0,1-.193-.139.73.73,0,0,1,.255-.012c.073,0,.108-.018.126-.089s.051-.16.084-.263c.037.106.07.19.093.276a.085.085,0,0,0,.1.076c.085,0,.171,0,.29,0-.094.07-.161.125-.233.172a.087.087,0,0,0-.041.119.65.65,0,0,1,.067.256Z" transform="translate(-292.066 -175.161)" fill="#f7f8f9"/>
    <path id="Path_3801" data-name="Path 3801" d="M-2391.029-181.631c-.028-.1.039-.177.061-.265.014-.055.013-.088-.039-.12a.959.959,0,0,1-.2-.172c.087,0,.175,0,.262,0a.081.081,0,0,0,.1-.069c.025-.089.058-.176.093-.277.044.124.053.26.126.326s.214.008.348.028c-.087.064-.157.117-.229.166a.081.081,0,0,0-.036.113c.032.083.055.169.092.283-.1-.07-.171-.12-.24-.175a.079.079,0,0,0-.117,0c-.069.057-.142.11-.214.164Z" transform="translate(-104.914 -241.583)" fill="#f7f8f9"/>
    <path id="Path_3802" data-name="Path 3802" d="M-2294.417-181.863c-.1-.071-.173-.122-.243-.178a.082.082,0,0,0-.119,0c-.07.056-.145.106-.239.173.033-.1.054-.187.085-.265a.1.1,0,0,0-.047-.139c-.067-.041-.128-.092-.2-.147a.846.846,0,0,1,.274-.015.085.085,0,0,0,.1-.069c.025-.085.054-.17.092-.284.036.107.069.184.089.265s.045.094.116.088.162,0,.278,0c-.1.071-.161.125-.231.17a.088.088,0,0,0-.041.122C-2294.479-182.062-2294.455-181.98-2294.417-181.863Z" transform="translate(-198.768 -241.336)" fill="#f7f8f9"/>
    <path id="Path_3803" data-name="Path 3803" d="M-2198.97-181.246c-.246-.212-.246-.212-.5-.036-.014.01-.03.017-.063.036.033-.1.056-.189.088-.271a.08.08,0,0,0-.037-.112c-.072-.048-.14-.1-.221-.16a.914.914,0,0,1,.271-.013.089.089,0,0,0,.1-.074c.023-.087.055-.171.086-.264a1.2,1.2,0,0,1,.1.269.083.083,0,0,0,.1.069c.086,0,.172,0,.295,0-.1.071-.164.126-.237.172-.052.032-.052.065-.039.12.022.088.089.166.061.265Z" transform="translate(-292.082 -241.968)" fill="#f7f8f9"/>
    <path id="Path_3804" data-name="Path 3804" d="M-2249.158-212.622a1.7,1.7,0,0,1,.238,0c.109.017.156-.031.176-.13a.53.53,0,0,1,.082-.189c.028.083.057.165.081.249a.08.08,0,0,0,.094.07c.089-.005.178,0,.3,0-.1.07-.163.126-.237.172a.091.091,0,0,0-.038.132c.03.072.055.146.093.25-.1-.072-.176-.122-.247-.178a.079.079,0,0,0-.117,0c-.072.058-.15.108-.246.177a1.461,1.461,0,0,1,.076-.212c.049-.089.024-.142-.058-.191C-2249.02-212.51-2249.075-212.56-2249.158-212.622Z" transform="translate(-243.751 -211.866)" fill="#f7f8f9"/>
    <path id="Path_3805" data-name="Path 3805" d="M-2342.293-351.307c-.068.05-.135.1-.205.148a.085.085,0,0,0-.04.121c.032.079.053.162.089.274-.091-.064-.162-.108-.226-.161a.1.1,0,0,0-.146,0,.591.591,0,0,1-.2.13.751.751,0,0,1,.066-.24.085.085,0,0,0-.037-.12.958.958,0,0,1-.2-.171c.087,0,.175,0,.262,0a.081.081,0,0,0,.1-.07c.023-.086.056-.17.094-.283.036.11.067.194.091.28a.087.087,0,0,0,.1.074c.084,0,.169,0,.254,0Z" transform="translate(-151.839 -76.264)" fill="#f7f8f9"/>
    <path id="Path_3806" data-name="Path 3806" d="M-2343.605-213.986a.5.5,0,0,1,.067-.223.085.085,0,0,0-.036-.121c-.075-.048-.144-.1-.218-.158.011-.009.017-.017.021-.016.26.044.43-.034.417-.362l.033.035a1.321,1.321,0,0,1,.068.207c.017.1.072.133.17.121a2.329,2.329,0,0,1,.243,0c-.1.072-.166.128-.24.176a.082.082,0,0,0-.035.121.737.737,0,0,1,.062.233c-.069-.049-.14-.094-.205-.147a.092.092,0,0,0-.135,0,.618.618,0,0,1-.213.138Z" transform="translate(-151.259 -209.982)" fill="#f7f8f9"/>
    <path id="Path_3807" data-name="Path 3807" d="M-2440.657-213.5a.7.7,0,0,1-.222-.143.082.082,0,0,0-.116,0c-.069.055-.143.1-.229.165a.782.782,0,0,1,.075-.243.082.082,0,0,0-.036-.121c-.074-.048-.143-.1-.24-.176.115,0,.2-.006.276,0a.1.1,0,0,0,.126-.089c.021-.082.051-.161.084-.262.037.109.071.2.1.287a.074.074,0,0,0,.087.064c.09,0,.181,0,.285,0a.993.993,0,0,1-.221.176.085.085,0,0,0-.036.12.535.535,0,0,1,.068.223Z" transform="translate(-55.835 -210.47)" fill="#f7f8f9"/>
    <path id="Path_3808" data-name="Path 3808" d="M-2384.111-279.928l-.007.016c-.011-.014,0-.016.009-.013Z" transform="translate(-111.84 -146.393)" fill="#f7f8f9"/>
    <path id="Path_3809" data-name="Path 3809" d="M-2262.708-280.377l0,.025-.016-.013Z" transform="translate(-230.496 -145.954)" fill="#f7f8f9"/>
    <path id="Path_3810" data-name="Path 3810" d="M-2166.845-279.927l.011.009s-.007,0-.008,0a.028.028,0,0,1,0-.01Z" transform="translate(-324.201 -146.392)" fill="#f7f8f9"/>
    <path id="Path_3811" data-name="Path 3811" d="M-2383.579-142.792l-.008,0,.009,0Z" transform="translate(-112.365 -280.421)" fill="#f7f8f9"/>
    <path id="Path_3812" data-name="Path 3812" d="M-2167.164-142.884l.009-.005-.008.006Z" transform="translate(-323.889 -280.33)" fill="#f7f8f9"/>
    <path id="Path_3813" data-name="Path 3813" d="M-2407.548-176.06l.009,0s0,0,0,.007l-.008-.012Z" transform="translate(-88.946 -247.908)" fill="#f7f8f9"/>
    <path id="Path_3814" data-name="Path 3814" d="M-2384.055-210.965l-.006.008s0,0-.006,0l.014,0Z" transform="translate(-111.896 -213.795)" fill="#f7f8f9"/>
    <path id="Path_3815" data-name="Path 3815" d="M-2407.722-106.984l.01,0h-.008Z" transform="translate(-88.776 -315.42)" fill="#f7f8f9"/>
    <path id="Path_3816" data-name="Path 3816" d="M-2336.064-106.908l-.011,0s0,0,0,0l.016,0Z" transform="translate(-158.798 -315.496)" fill="#f7f8f9"/>
    <path id="Path_3817" data-name="Path 3817" d="M-2166.9-210.937l.014,0h-.006l-.007-.008Z" transform="translate(-324.149 -213.821)" fill="#f7f8f9"/>
    <path id="Path_3818" data-name="Path 3818" d="M-2336.14-243.968c.009.006.009.012,0,.016s-.007,0-.01,0l.013-.013Z" transform="translate(-158.727 -181.539)" fill="#f7f8f9"/>
    <path id="Path_3819" data-name="Path 3819" d="M-2336.045-176.052a.027.027,0,0,1,0,.01s-.005,0-.008,0l.011-.009Z" transform="translate(-158.821 -247.918)" fill="#f7f8f9"/>
  </g>
</svg>
